Coordinates
nRows=8
nColumns=34

# SIMM Motion File Header:
name Coordinates
datacolumns 34
datarows 8
otherdata 1
range 0.15000000 0.15700000

Units are S.I. units (second, meters, Newtons, ...)
Angles are in degrees.

endheader
time	pelvis_tz	pelvis_tx	pelvis_ty	pelvis_tilt	pelvis_list	pelvis_rotation	hip_flexion_r	hip_adduction_r	hip_rotation_r	knee_r_tx	knee_r_ty	knee_angle_r	tib_pat_r_tx	tib_pat_r_ty	tib_pat_r_r1	ankle_angle_r	subtalar_angle_r	mtp_angle_r	hip_flexion_l	hip_adduction_l	hip_rotation_l	knee_l_tx	knee_l_ty	knee_angle_l	tib_pat_l_tx	tib_pat_l_ty	tib_pat_l_r1	ankle_angle_l	subtalar_angle_l	mtp_angle_l	lumbar_extension	lumbar_bending	lumbar_rotation
      0.15000000	     -0.25938013	     -0.00120728	      0.91492844	     -2.40796133	     -2.25575520	      0.13397186	     15.04491780	      4.39970402	     12.31221640	     -0.00330351	     -0.41390824	     -9.64764983	      0.04533467	     -0.02087962	      8.90843044	      0.02205135	      0.00000000	      0.00000000	     -3.67592339	     -1.85367773	     -1.75250110	      0.00275429	     -0.41927484	    -44.23268922	      0.03931937	     -0.01959013	     16.76687648	    -20.96259318	      0.00000000	      0.00000000	     -0.35020159	      7.12070477	     -3.72314389
      0.15100000	     -0.25931127	     -0.00014770	      0.91506222	     -2.40743957	     -2.25635846	      0.13031765	     14.95405550	      4.40583222	     12.32193918	     -0.00330866	     -0.41390581	     -9.62064231	      0.04533886	     -0.02088094	      8.89043200	      0.08075645	     -0.00000000	     -0.00000000	     -3.50834658	     -1.87931109	     -1.76975289	      0.00278802	     -0.41933665	    -44.50544010	      0.03925962	     -0.01958075	     16.78407486	    -20.86590669	     -0.00000000	     -0.00000000	     -0.35764976	      7.11722244	     -3.68474650
      0.15200000	     -0.25924235	      0.00091185	      0.91519599	     -2.40691927	     -2.25693894	      0.12665637	     14.86319613	      4.41194419	     12.33166843	     -0.00331381	     -0.41390338	     -9.59362553	      0.04534305	     -0.02088226	      8.87239229	      0.13973611	     -0.00000000	      0.00000000	     -3.34077251	     -1.90492650	     -1.78701367	      0.00282156	     -0.41939869	    -44.77811545	      0.03919974	     -0.01957141	     16.80100974	    -20.76915332	     -0.00000000	      0.00000000	     -0.36509579	      7.11370603	     -3.64633992
      0.15300000	     -0.25917336	      0.00197132	      0.91532973	     -2.40639927	     -2.25748346	      0.12296997	     14.77235136	      4.41802231	     12.34143756	     -0.00331895	     -0.41390096	     -9.56661526	      0.04534724	     -0.02088358	      8.85432175	      0.19856178	     -0.00000000	      0.00000000	     -3.17321165	     -1.93050913	     -1.80429777	      0.00285492	     -0.41946096	    -45.05064975	      0.03913976	     -0.01956210	     16.81767937	    -20.67229365	     -0.00000000	      0.00000000	     -0.37254256	      7.11013931	     -3.60790350
      0.15400000	     -0.25910425	      0.00303068	      0.91546343	     -2.40587872	     -2.25797357	      0.11924777	     14.68152509	      4.42405042	     12.35126342	     -0.00332408	     -0.41389854	     -9.53961083	      0.04535144	     -0.02088490	      8.83621994	      0.25724604	     -0.00000000	      0.00000000	     -3.00567156	     -1.95604279	     -1.82161559	      0.00288808	     -0.41952344	    -45.32297223	      0.03907968	     -0.01955283	     16.83408189	    -20.57527336	     -0.00000000	      0.00000000	     -0.37999112	      7.10649590	     -3.56942433
      0.15500000	     -0.25903498	      0.00408990	      0.91559709	     -2.40535681	     -2.25839059	      0.11547943	     14.59072097	      4.43001245	     12.36116228	     -0.00332920	     -0.41389612	     -9.51261095	      0.04535564	     -0.02088622	      8.81808597	      0.31581815	     -0.00000000	      0.00000000	     -2.83815964	     -1.98151121	     -1.83897739	      0.00292101	     -0.41958610	    -45.59501198	      0.03901953	     -0.01954359	     16.85021570	    -20.47803774	     -0.00000000	      0.00000000	     -0.38744243	      7.10274908	     -3.53088983
      0.15600000	     -0.25896551	      0.00514894	      0.91573069	     -2.40483275	     -2.25871591	      0.11165455	     14.49994270	      4.43589237	     12.37115045	     -0.00333432	     -0.41389370	     -9.48561441	      0.04535984	     -0.02088755	      8.79991899	      0.37430598	     -0.00000000	      0.00000000	     -2.67068327	     -2.00689814	     -1.85639345	      0.00295372	     -0.41964893	    -45.86669817	      0.03895931	     -0.01953440	     16.86607946	    -20.38053233	     -0.00000000	      0.00000000	     -0.39489741	      7.09887221	     -3.49228745
      0.15700000	     -0.25889581	      0.00620777	      0.91586422	     -2.40430578	     -2.25893098	      0.10776276	     14.40919405	      4.44167415	     12.38124432	     -0.00333942	     -0.41389128	     -9.45862005	      0.04536404	     -0.02088887	      8.78171820	      0.43273537	     -0.00000000	     -0.00000000	     -2.50324981	     -2.03218736	     -1.87387405	      0.00298618	     -0.41971191	    -46.13796015	      0.03889906	     -0.01952525	     16.88167208	    -20.28270308	     -0.00000000	      0.00000000	     -0.40235699	      7.09483875	     -3.45360466
